<svg xmlns="http://www.w3.org/2000/svg" viewBox="0 0 358.55 360.12"><defs><style>.cls-1{fill:#fff;}</style></defs><g id="Layer_2" data-name="Layer 2"><g id="Layer_1-2" data-name="Layer 1"><polygon class="cls-1" points="107.49 344.82 147.5 331.49 177.32 360.12 207.13 331.49 245.97 347.57 264.01 310.3 304.81 310.3 307.17 267.94 343.65 251.85 331.09 211.84 358.56 182.81 331.88 152.99 346.39 113.37 310.3 96.11 309.13 54.92 267.54 52.17 249.89 14.12 212.23 28.25 182.81 0 152.21 27.46 112.98 12.55 94.94 49.82 53.74 51 51.39 90.23 14.52 107.88 27.46 147.11 0 176.92 26.28 207.13 11.38 246.36 47.86 263.62 50.21 305.2 90.62 307.17 107.49 344.82"/></g></g></svg>