<svg xmlns="http://www.w3.org/2000/svg" viewBox="0 0 361.72 297.8"><defs><style>.cls-1{fill:#fff;}</style></defs><g id="Layer_2" data-name="Layer 2"><g id="Layer_1-2" data-name="Layer 1"><rect class="cls-1" x="36.04" y="105.67" width="270.51" height="107.43"/><path class="cls-1" d="M24.9,148.7A102.4,102.4,0,0,1,6,116.49c-11.48-32-7.14-74.76,17.75-99.58a56.79,56.79,0,0,1,66-10.84c26.48,13.14,32.43,41.45,33.13,45.09Z"/><path class="cls-1" d="M103.79,15.79A102.4,102.4,0,0,1,122.65,48c11.48,32,7.13,74.76-17.76,99.58a56.78,56.78,0,0,1-66,10.84C12.44,145.28,6.49,117,5.79,113.33Z"/><path class="cls-1" d="M139.33,148.7a102.59,102.59,0,0,1-18.86-32.21c-11.48-32-7.13-74.76,17.76-99.58a56.79,56.79,0,0,1,66-10.84c26.47,13.14,32.42,41.45,33.12,45.09Z"/><path class="cls-1" d="M218.22,15.79A102.58,102.58,0,0,1,237.09,48c11.47,32,7.13,74.76-17.76,99.58a56.79,56.79,0,0,1-66,10.84c-26.48-13.14-32.43-41.45-33.13-45.09Z"/><path class="cls-1" d="M257.94,148.7a102.58,102.58,0,0,1-18.87-32.21c-11.48-32-7.13-74.76,17.76-99.58a56.79,56.79,0,0,1,66-10.84c26.48,13.14,32.43,41.45,33.13,45.09Z"/><path class="cls-1" d="M336.83,15.79A102.59,102.59,0,0,1,355.69,48c11.48,32,7.13,74.76-17.76,99.58a56.79,56.79,0,0,1-66,10.84c-26.47-13.14-32.42-41.45-33.12-45.09Z"/><path class="cls-1" d="M24.9,282A102.45,102.45,0,0,1,6,249.81c-11.48-32-7.14-74.77,17.75-99.58a56.81,56.81,0,0,1,66-10.85c26.48,13.14,32.43,41.46,33.13,45.09Z"/><path class="cls-1" d="M103.79,149.11a102.45,102.45,0,0,1,18.86,32.2c11.48,32,7.13,74.77-17.76,99.58a56.8,56.8,0,0,1-66,10.85C12.44,278.6,6.49,250.28,5.79,246.65Z"/><path class="cls-1" d="M139.33,282a102.64,102.64,0,0,1-18.86-32.2c-11.48-32-7.13-74.77,17.76-99.58a56.81,56.81,0,0,1,66-10.85c26.47,13.14,32.42,41.46,33.12,45.09Z"/><path class="cls-1" d="M218.22,149.11a102.63,102.63,0,0,1,18.87,32.2c11.47,32,7.13,74.77-17.76,99.58a56.81,56.81,0,0,1-66,10.85c-26.48-13.14-32.43-41.46-33.13-45.09Z"/><path class="cls-1" d="M257.94,282a102.63,102.63,0,0,1-18.87-32.2c-11.48-32-7.13-74.77,17.76-99.58a56.81,56.81,0,0,1,66-10.85c26.48,13.14,32.43,41.46,33.13,45.09Z"/><path class="cls-1" d="M336.83,149.11a102.64,102.64,0,0,1,18.86,32.2c11.48,32,7.13,74.77-17.76,99.58a56.81,56.81,0,0,1-66,10.85c-26.47-13.14-32.42-41.46-33.12-45.09Z"/></g></g></svg>