<?xml version="1.0" encoding="utf-8"?>
<svg viewBox="0 0 500 500" xmlns="http://www.w3.org/2000/svg">
  <circle id="Oval_Copy_52" data-name="Oval Copy 52" cx="249.701" cy="250.3" r="248.144" fill="#9000fb" style=""/>
  <g id="Group_3" data-name="Group 3" transform="matrix(9.997005, 0, 0, 9.997005, 194.155167, 154.037613)" style=""/>
  <path d="M 240.887 370.019 L 240.887 305.868 C 240.887 295.603 239.176 287.156 235.753 280.528 C 232.332 273.898 227.094 267.055 220.036 259.999 L 233.829 246.206 C 236.609 248.559 239.549 251.767 242.651 255.829 C 245.75 259.893 248.369 263.635 250.508 267.055 C 254.145 261.496 257.725 256.685 261.254 252.622 C 264.782 248.559 268.15 245.138 271.359 242.357 C 283.76 232.306 292.687 220.171 298.141 205.952 C 303.594 191.73 305.678 173.074 304.396 149.979 L 275.529 178.847 L 262.057 165.375 L 314.019 113.413 L 365.981 165.375 L 352.51 178.847 L 323.642 149.979 C 324.71 176.923 322.091 198.145 315.783 213.649 C 309.474 229.152 298.943 243.64 284.188 257.113 C 274.78 265.666 268.418 273.47 265.104 280.528 C 261.789 287.584 260.131 296.031 260.131 305.868 L 260.131 370.019 L 240.887 370.019 Z M 179.301 191.677 C 178.445 187.828 177.751 182.215 177.216 174.838 C 176.679 167.46 176.626 159.281 177.055 150.3 L 148.507 178.847 L 135.036 165.375 L 186.999 113.413 L 238.961 165.375 L 225.49 178.847 L 196.622 149.979 C 196.195 158.105 196.086 165.216 196.301 171.31 C 196.515 177.403 197.049 182.696 197.904 187.187 L 179.301 191.677 Z M 206.243 246.527 C 202.61 242.678 198.599 237.6 194.216 231.291 C 189.832 224.983 186.465 218.086 184.112 210.602 L 203.037 205.79 C 204.961 211.137 207.526 216.268 210.735 221.188 C 213.943 226.106 216.936 230.062 219.715 233.055 L 206.243 246.527 Z" style="fill: rgb(255, 255, 255);" transform="matrix(-1, 0, 0, -1, 501.016968, 483.432007)"/>
</svg>