<svg id="ic-create-note" xmlns="http://www.w3.org/2000/svg" width="40" height="40" viewBox="0 0 40 40">
  <circle id="Oval_Copy_52" data-name="Oval Copy 52" cx="20" cy="20" r="20" fill="#14b8a4"/>
  <g id="Icons_Create_Note" data-name="Icons / Create Note" transform="translate(10 10)">
    <rect id="Icons_Note_White_background" data-name="Icons / Note White  background" width="20" height="20" fill="none"/>
    <g id="note">
      <path id="Shape" d="M6.027,19.786A6.531,6.531,0,0,1,.239,13.972a33.065,33.065,0,0,1,0-7.943A6.532,6.532,0,0,1,6.027.214,35.984,35.984,0,0,1,10,0a1,1,0,1,1,0,2,34.1,34.1,0,0,0-3.752.2L6.027.214,6.248,2.2A4.532,4.532,0,0,0,2.226,6.263,31.965,31.965,0,0,0,2,10a31.965,31.965,0,0,0,.226,3.737l-1.986.235,1.986-.235A4.533,4.533,0,0,0,6.248,17.8,34.12,34.12,0,0,0,10,18a33.913,33.913,0,0,0,3.963-.226,4.282,4.282,0,0,0,3.812-3.812A33.913,33.913,0,0,0,18,10h2a36,36,0,0,1-.239,4.2l-1.986-.234,1.986.234A6.281,6.281,0,0,1,14.2,19.76,36,36,0,0,1,10,20,35.984,35.984,0,0,1,6.027,19.786ZM18,10a1,1,0,1,1,2,0Z" fill="#fff"/>
      <path id="Path" d="M11.779.667,11.4.292a1.009,1.009,0,0,0-1.419,0L1.411,8.8a1,1,0,0,0-.178.24L.06,11.254a.5.5,0,0,0,.678.673l2.228-1.164a1,1,0,0,0,.242-.177l8.571-8.51A.991.991,0,0,0,11.779.667Z" transform="translate(6.563 1.526)" fill="#fff"/>
    </g>
  </g>
</svg>
