<svg xmlns="http://www.w3.org/2000/svg" width="40" height="40" viewBox="0 0 40 40">
  <g id="Group_51" data-name="Group 51" transform="translate(-192 -274)">
    <circle id="Oval_Copy_51" data-name="Oval Copy 51" cx="20" cy="20" r="20" transform="translate(192 274)" fill="#46d3a9"/>
    <g id="Icons_Follow" data-name="Icons / Follow" transform="translate(202 284)">
      <rect id="Icons_Follow_background" data-name="Icons / Follow background" width="20" height="20" fill="none"/>
      <g id="Contact_added-1" data-name="Contact added-1" transform="translate(1 1)">
        <path id="Path" d="M2.32,13.514A7.66,7.66,0,0,1,0,7.916a7.66,7.66,0,0,1,2.319-5.6A7.66,7.66,0,0,1,7.917,0a7.621,7.621,0,0,1,4.75,1.575" transform="translate(0 3.167)" fill="none" stroke="#fff" stroke-linecap="round" stroke-miterlimit="10" stroke-width="2"/>
        <path id="Path-2" data-name="Path" d="M1.583,4.75,0,0" transform="translate(12.167)" fill="none" stroke="#fff" stroke-linecap="round" stroke-miterlimit="10" stroke-width="2"/>
        <path id="Path-3" data-name="Path" d="M0,3.167,4.75,0" transform="translate(9 4.75)" fill="none" stroke="#fff" stroke-linecap="round" stroke-miterlimit="10" stroke-width="2"/>
        <path id="Path-4" data-name="Path" d="M.5,0V6" transform="translate(14.5 11)" fill="none" stroke="#fff" stroke-linecap="round" stroke-miterlimit="10" stroke-width="2"/>
        <path id="Path-5" data-name="Path" d="M0,.5H6" transform="translate(12 13.5)" fill="none" stroke="#fff" stroke-linecap="round" stroke-miterlimit="10" stroke-width="2"/>
      </g>
    </g>
  </g>
</svg>
