<?xml version="1.0" encoding="utf-8"?>
<svg viewBox="0 0 500 500" xmlns="http://www.w3.org/2000/svg">
  <circle style="fill: rgb(16, 19, 54);" cx="249.439" cy="249.439" r="246.832" transform="matrix(0, -1, 1, 0, 0, 498.877991)"/>
  <path d="M 117.63 194.51 L 141.63 194.51 L 141.63 218.51 L 117.63 218.51 L 117.63 194.51 Z" fill="none"/>
  <g transform="matrix(10.446316, 0, 0, 10.446316, 127.169479, 235.474762)" style="">
    <rect fill="none" height="24" width="24" y="0"/>
  </g>
  <g transform="matrix(10.446316, 0, 0, 10.446316, 121.557808, 120.435478)" style="">
    <path d="M19.48,12.35c-1.57-4.08-7.16-4.3-5.81-10.23c0.1-0.44-0.37-0.78-0.75-0.55C9.29,3.71,6.68,8,8.87,13.62 c0.18,0.46-0.36,0.89-0.75,0.59c-1.81-1.37-2-3.34-1.84-4.75c0.06-0.52-0.62-0.77-0.91-0.34C4.69,10.16,4,11.84,4,14.37 c0.38,5.6,5.11,7.32,6.81,7.54c2.43,0.31,5.06-0.14,6.95-1.87C19.84,18.11,20.6,15.03,19.48,12.35z M10.2,17.38 c1.44-0.35,2.18-1.39,2.38-2.31c0.33-1.43-0.96-2.83-0.09-5.09c0.33,1.87,3.27,3.04,3.27,5.08C15.84,17.59,13.1,19.76,10.2,17.38z" style="fill: rgb(255, 255, 255);"/>
  </g>
</svg>