<?xml version="1.0" encoding="utf-8"?>
<svg viewBox="0 0 500 500" xmlns="http://www.w3.org/2000/svg">
  <circle style="fill: rgb(0, 189, 255);" cx="249.439" cy="249.439" r="246.832" transform="matrix(0, -1, 1, 0, 0, 498.877991)"/>
  <path d="M 117.63 194.51 L 141.63 194.51 L 141.63 218.51 L 117.63 218.51 L 117.63 194.51 Z" fill="none"/>
  <path d="M 345.486 140.394 L 165.176 140.394 C 152.781 140.394 142.638 150.537 142.638 162.932 L 142.638 365.781 L 187.716 320.704 L 345.486 320.704 C 357.883 320.704 368.025 310.561 368.025 298.165 L 368.025 162.932 C 368.025 150.537 357.883 140.394 345.486 140.394 Z M 345.486 298.165 L 178.362 298.165 L 165.176 311.35 L 165.176 162.932 L 345.486 162.932 L 345.486 298.165 Z M 198.985 219.28 L 221.524 219.28 L 221.524 241.818 L 198.985 241.818 Z M 289.14 219.28 L 311.678 219.28 L 311.678 241.818 L 289.14 241.818 Z M 244.062 219.28 L 266.601 219.28 L 266.601 241.818 L 244.062 241.818 Z" style="fill: rgb(255, 255, 255);"/>
</svg>