<svg id="Group_53" data-name="Group 53" xmlns="http://www.w3.org/2000/svg" width="40" height="40" viewBox="0 0 40 40">
  <circle id="Oval_Copy_53" data-name="Oval Copy 53" cx="20" cy="20" r="20" fill="#f19d50"/>
  <g id="Icons_Send_E-mail" data-name="Icons / Send E-mail" transform="translate(10 10)">
    <rect id="Icons_Send_E-mail_background" data-name="Icons / Send E-mail background" width="20" height="20" fill="none"/>
    <g id="Frame_22" data-name="Frame 22" transform="translate(0 1)">
      <path id="Shape" d="M10,15.884a37.651,37.651,0,0,0,4.823-.4,3.233,3.233,0,0,0,2.93-2.633l1.978.292A5.225,5.225,0,0,1,15.1,17.468a39.53,39.53,0,0,1-5.1.416ZM5.164,17.5A5.552,5.552,0,0,1,.259,12.877l1.98-.287a3.556,3.556,0,0,0,3.19,2.931A36.627,36.627,0,0,0,10,15.884v2A38.346,38.346,0,0,1,5.164,17.5Zm12.588-4.649A24.938,24.938,0,0,0,18,9.222h2a26.9,26.9,0,0,1-.269,3.923ZM0,9.222A28.749,28.749,0,0,1,.343,4.856,5.36,5.36,0,0,1,4.976.319L5.239,2.3a3.363,3.363,0,0,0-2.92,2.86A26.8,26.8,0,0,0,2,9.222a23.557,23.557,0,0,0,.239,3.368l-1.98.287A25.661,25.661,0,0,1,0,9.222Zm18,0a27.557,27.557,0,0,0-.317-4.244A3.153,3.153,0,0,0,14.93,2.325L15.2.344A5.153,5.153,0,0,1,19.66,4.671,29.57,29.57,0,0,1,20,9.222ZM10,2V0a38.017,38.017,0,0,1,5.2.344L14.93,2.325A36.083,36.083,0,0,0,10,2ZM4.976.319A38.19,38.19,0,0,1,10,0V2a36.4,36.4,0,0,0-4.761.3Z" fill="#fff"/>
      <path id="Path" d="M16.2,0,9.785,4.356a3,3,0,0,1-3.371,0L0,0" transform="translate(1.9 4)" fill="none" stroke="#fff" stroke-miterlimit="10" stroke-width="2"/>
    </g>
  </g>
</svg>
