<?xml version="1.0" encoding="utf-8"?>
<!-- Generator: Adobe Illustrator 25.0.0, SVG Export Plug-In . SVG Version: 6.00 Build 0)  -->
<svg version="1.1" id="Livello_1" xmlns="http://www.w3.org/2000/svg" xmlns:xlink="http://www.w3.org/1999/xlink" x="0px" y="0px"
	 viewBox="0 0 129 129" style="enable-background:new 0 0 129 129;" xml:space="preserve">
<style type="text/css">
	.st0{fill:#E0E0E0;}
</style>
<g>
	<rect x="29.2" y="35.4" class="st0" width="2" height="1"/>
	<rect x="33.2" y="35.4" class="st0" width="2" height="1"/>
	<rect x="41.2" y="35.4" class="st0" width="2" height="1"/>
	<rect x="25.2" y="35.4" class="st0" width="2" height="1"/>
	<rect x="21.2" y="35.4" class="st0" width="2" height="1"/>
	<rect x="13.2" y="35.4" class="st0" width="2" height="1"/>
	<rect x="17.2" y="35.4" class="st0" width="2" height="1"/>
	<rect x="57.2" y="35.4" class="st0" width="2" height="1"/>
	<rect x="45.2" y="35.4" class="st0" width="2" height="1"/>
	<rect x="65.2" y="35.4" class="st0" width="2" height="1"/>
	<rect x="61.2" y="35.4" class="st0" width="2" height="1"/>
	<rect x="49.2" y="35.4" class="st0" width="2" height="1"/>
	<rect x="53.2" y="35.4" class="st0" width="2" height="1"/>
	<rect x="37.2" y="35.4" class="st0" width="2" height="1"/>
	<rect x="69.2" y="35.4" class="st0" width="2" height="1"/>
	<rect x="53.2" y="66" class="st0" width="2" height="1"/>
	<rect x="69.2" y="66" class="st0" width="2" height="1"/>
	<rect x="21.2" y="66" class="st0" width="2" height="1"/>
	<rect x="49.2" y="66" class="st0" width="2" height="1"/>
	<rect x="57.2" y="66" class="st0" width="2" height="1"/>
	<rect x="65.2" y="66" class="st0" width="2" height="1"/>
	<rect x="61.2" y="66" class="st0" width="2" height="1"/>
	<rect x="45.2" y="66" class="st0" width="2" height="1"/>
	<rect x="25.2" y="66" class="st0" width="2" height="1"/>
	<rect x="13.2" y="66" class="st0" width="2" height="1"/>
	<rect x="29.2" y="66" class="st0" width="2" height="1"/>
	<rect x="17.2" y="66" class="st0" width="2" height="1"/>
	<rect x="41.2" y="66" class="st0" width="2" height="1"/>
	<rect x="37.2" y="66" class="st0" width="2" height="1"/>
	<rect x="33.2" y="66" class="st0" width="2" height="1"/>
	<path class="st0" d="M115.2,63.1c-0.8,0-1.7,0.2-2.4,0.6c-0.3-2.6-2.8-4.5-5.4-4.1c-0.6,0.1-1.2,0.3-1.8,0.6
		c-0.5-2.6-2.9-4.4-5.6-3.9c-1.6,0.3-3,1.4-3.6,2.9c-2.2-1.5-5.2-0.9-6.7,1.2c-0.4,0.7-0.7,1.4-0.8,2.2v3.2l-5.4,5.7
		c-1.3,1.4-2.1,3.2-2.1,5.1v2.2c0,1.3,0.2,2.5,0.7,3.7l2.7,7.6c0.8,2.3,2.3,4.2,4.2,5.7c1.9,1.4,4.3,2.2,6.7,2.3h10.9
		c7.3,0,13.3-6,13.3-13.3V67.9C120,65.3,117.8,63.1,115.2,63.1z M117.5,84.8L117.5,84.8c0,6-4.9,10.8-10.8,10.8H95.8
		c-3.9-0.1-7.4-2.6-8.7-6.3l-2.7-7.6c-0.3-0.9-0.5-1.9-0.5-2.8v-2.2c0-1.3,0.5-2.5,1.4-3.5l3.6-3.8v8.7h2.5v-15c0-1.3,1-2.4,2.3-2.4
		s2.4,1,2.4,2.3c0,0,0,0.1,0,0.1v6.1h2.5v-8.3c0-1.3,1-2.4,2.3-2.4s2.4,1,2.4,2.3c0,0,0,0.1,0,0.1v8.3h2.5v-4.9
		c0-1.3,1.1-2.3,2.4-2.3c1.3,0,2.3,1,2.3,2.3v4.9h2.4v-1.4c0-1.3,1.1-2.3,2.4-2.3c1.3,0,2.3,1,2.3,2.3V84.8z"/>
	<path class="st0" d="M84,61.3H57.6c-1,0-1.9-0.8-1.9-1.9V43.3c0-1,0.8-1.9,1.9-1.9h46.5c1,0,1.9,0.8,1.9,1.9v13.2h2V43.3
		c0-2.1-1.7-3.9-3.9-3.9H75.8V21H10v87.7h65.8V63.3H84V61.3z M73.8,106.7H12V23h61.8v16.4H57.6c-2.1,0-3.9,1.7-3.9,3.9v16.2
		c0,2.1,1.7,3.9,3.9,3.9h16.1V106.7z"/>
</g>
</svg>
