<svg version="1.2" xmlns="http://www.w3.org/2000/svg" viewBox="0 0 744 516" width="744" height="516">
	<title>undraw_typing_re_d4sq-svg</title>
	<style>
		.s0 { fill: #f2f2f2 } 
		.s1 { fill: #ffffff } 
		.s2 { fill: #e6e6e6 } 
	</style>
	<path id="Layer" class="s0" d="m48.1 0h376.3c6.4 0 12.6 1.3 18.5 3.7 5.8 2.4 11.1 5.9 15.6 10.4 4.4 4.5 8 9.8 10.4 15.6 2.4 5.9 3.7 12.1 3.7 18.4v205.9c0 6.3-1.3 12.6-3.7 18.4-2.4 5.8-6 11.1-10.4 15.6-4.5 4.5-9.8 8-15.6 10.4-5.9 2.5-12.1 3.7-18.5 3.7h-376.3c-6.3 0-12.5-1.2-18.4-3.7-5.8-2.4-11.1-5.9-15.6-10.4-4.5-4.5-8-9.8-10.4-15.6-2.4-5.8-3.7-12.1-3.7-18.4v-205.9c0-6.3 1.3-12.5 3.7-18.4 2.4-5.8 5.9-11.1 10.4-15.6 4.5-4.5 9.8-8 15.6-10.4 5.9-2.4 12.1-3.7 18.4-3.7z"/>
	<path id="Layer" class="s1" d="m48.1 13.9h376.3c4.5 0 9 0.8 13.2 2.6 4.1 1.7 7.9 4.2 11.1 7.4 3.1 3.2 5.7 7 7.4 11.1 1.7 4.2 2.6 8.6 2.6 13.1v205.9c0 4.5-0.9 9-2.6 13.1-1.7 4.2-4.3 7.9-7.4 11.1-3.2 3.2-7 5.7-11.1 7.5-4.2 1.7-8.7 2.6-13.2 2.6h-376.3c-4.5 0-8.9-0.9-13.1-2.6-4.1-1.8-7.9-4.3-11.1-7.5-3.2-3.2-5.7-6.9-7.4-11.1-1.8-4.1-2.6-8.6-2.6-13.1v-205.9c0-4.5 0.8-8.9 2.6-13.1 1.7-4.1 4.2-7.9 7.4-11.1 3.2-3.2 7-5.7 11.1-7.4 4.2-1.8 8.6-2.6 13.1-2.6z"/>
	<path id="Layer" class="s0" d="m51.8 375.8q-0.4 0-0.9 0-0.4-0.1-0.8-0.1-0.4-0.1-0.8-0.2-0.4-0.2-0.8-0.3-1.2-0.5-2.2-1.3-0.9-0.8-1.6-1.8-0.7-1.1-1.1-2.3-0.4-1.2-0.4-2.5v-71.2l94.9-3.1-80.3 80.3q-0.6 0.6-1.3 1.1-0.7 0.5-1.5 0.8-0.7 0.3-1.6 0.5-0.8 0.1-1.6 0.1z"/>
	<path id="Layer" class="s0" d="m73.8 85.6c0-11.4 9.2-20.5 20.5-20.5h283c11.3 0 20.5 9.1 20.5 20.5 0 11.3-9.2 20.5-20.5 20.5h-283c-11.3 0-20.5-9.2-20.5-20.5z"/>
	<path id="Layer" class="s0" d="m74.3 151.1c0-11.4 9.2-20.6 20.5-20.6h283c11.3 0 20.5 9.2 20.5 20.6 0 11.3-9.2 20.5-20.5 20.5h-283c-11.3 0-20.5-9.2-20.5-20.5z"/>
	<path id="Layer" class="s0" d="m74.7 216.5c0-11.3 9.2-20.5 20.6-20.5h282.9c11.4 0 20.5 9.2 20.5 20.5 0 11.4-9.1 20.6-20.5 20.6h-282.9c-11.4 0-20.6-9.2-20.6-20.6z"/>
	<path id="Layer" class="s2" d="m642.4 105h-376.4c-6.3 0-12.5 1.3-18.4 3.7-5.8 2.4-11.1 5.9-15.6 10.4-4.4 4.5-8 9.8-10.4 15.6-2.4 5.9-3.7 12.1-3.7 18.4v205.9c0 6.3 1.3 12.6 3.7 18.4 2.4 5.8 6 11.1 10.4 15.6 4.5 4.5 9.8 8 15.6 10.4 5.9 2.5 12.1 3.7 18.4 3.7h376.4c6.3 0 12.5-1.2 18.4-3.7 5.8-2.4 11.1-5.9 15.6-10.4 4.4-4.5 8-9.8 10.4-15.6 2.4-5.8 3.7-12.1 3.7-18.4v-205.9c0-6.3-1.3-12.5-3.7-18.4-2.4-5.8-6-11.1-10.4-15.6-4.5-4.5-9.8-8-15.6-10.4-5.9-2.4-12.1-3.7-18.4-3.7z"/>
	<path id="Layer" class="s1" d="m642.4 118.9h-376.4c-4.5 0-8.9 0.8-13.1 2.6-4.1 1.7-7.9 4.2-11.1 7.4-3.2 3.2-5.7 7-7.4 11.1-1.7 4.2-2.6 8.6-2.6 13.1v205.9c0 4.5 0.9 9 2.6 13.1 1.7 4.2 4.2 7.9 7.4 11.1 3.2 3.2 7 5.7 11.1 7.5 4.2 1.7 8.6 2.6 13.1 2.6h376.4c4.5 0 8.9-0.9 13.1-2.6 4.1-1.8 7.9-4.3 11.1-7.5 3.2-3.2 5.7-6.9 7.4-11.1 1.7-4.1 2.6-8.6 2.6-13.1v-205.9c0-4.5-0.9-8.9-2.6-13.1-1.7-4.1-4.2-7.9-7.4-11.1-3.2-3.2-7-5.7-11.1-7.4-4.2-1.8-8.6-2.6-13.1-2.6z"/>
	<path id="Layer" class="s2" d="m613.7 478.3l-80.3-80.3 94.8 3.1v71.2q0.1 1.3-0.3 2.5-0.4 1.2-1.1 2.3-0.7 1-1.7 1.8-0.9 0.8-2.1 1.3-0.4 0.1-0.8 0.3-0.4 0.1-0.8 0.2-0.4 0-0.9 0.1-0.4 0-0.8 0-0.8 0-1.7-0.1-0.8-0.2-1.5-0.5-0.8-0.3-1.5-0.8-0.7-0.5-1.3-1.1z"/>
	<path id="Layer" class="s1" d="m371.2 282.1c-14.4 0-26-11.7-26-26 0-14.4 11.6-26 26-26 14.4 0 26 11.6 26 26 0 14.3-11.6 26-26 26z"/>
	<path id="Layer" class="s1" d="m454.2 282.1c-14.4 0-26-11.7-26-26 0-14.4 11.6-26 26-26 14.4 0 26 11.6 26 26 0 14.3-11.6 26-26 26z"/>
	<path id="Layer" class="s1" d="m537.2 282.1c-14.4 0-26-11.7-26-26 0-14.4 11.6-26 26-26 14.4 0 26 11.6 26 26 0 14.3-11.6 26-26 26z"/>
</svg>