<svg version="1.2" xmlns="http://www.w3.org/2000/svg" viewBox="0 0 827 574" width="827" height="574">
	<title>undrawtexting-svg</title>
	<style>
		.s0 { fill: #ffffff } 
		.s1 { fill: #f0f0f5 } 
		.s2 { fill: #e6e6e6 } 
		.s3 { fill: #a0616a } 
		.s4 { fill: #cccccc } 
	</style>
	<path id="b8f08c5c-b476-40dd-b664-770adaae3509" class="s0" d="m93.1 60.3c-2.4 0-4.3-1.9-4.3-4.3 0-2.4 1.9-4.4 4.3-4.4 2.4 0 4.4 2 4.4 4.4 0 2.4-2 4.3-4.4 4.3z"/>
	<path id="eee44b09-a27a-4be3-8c5b-6b6370df12ff" class="s0" d="m109.6 60.3c-2.4 0-4.3-1.9-4.3-4.3 0-2.4 1.9-4.4 4.3-4.4 2.4 0 4.4 2 4.4 4.4 0 2.4-2 4.3-4.4 4.3z"/>
	<path id="a2d5f093-6500-400f-8de1-66712a079cc1" class="s0" d="m126.2 60.3c-2.4 0-4.4-1.9-4.4-4.3 0-2.4 2-4.4 4.4-4.4 2.4 0 4.3 2 4.3 4.4 0 2.4-1.9 4.3-4.3 4.3z"/>
	<path id="e14e0169-ef8c-4de3-8e3e-1fb1636d9038" class="s0" d="m82.5 66.2h552.9v3.1h-552.9z"/>
	<path id="e89f9aca-511f-49ec-bc12-8613d3bd0166" class="s1" d="m0 0h635.6v27h-635.6z"/>
	<path id="ad9dc5de-4949-4eac-9eb5-22ff577a9f6a" class="s0" d="m19 48.8h599.3v155.2h-599.3z"/>
	<path id="b859c105-7eee-4028-bc04-8285f6faca7e" class="s0" d="m19.4 229.5h599.2v155.2h-599.2z"/>
	<g id="aa41527c-9c03-4708-86c5-0d027f971362">
		<path id="b2d77c21-275f-42a7-94e0-5b816ba20a4e" class="s2" d="m221.3 83.1h324.4v14.5h-324.4z"/>
		<path id="b25a2924-64e6-4438-87d6-1fb43933af96" class="s2" d="m221.3 119.3h115.7v14.4h-115.7z"/>
		<path id="b8fe27c9-e561-42fa-9287-e7ff86698f34" class="s2" d="m221.3 155.4h230.4v14.4h-230.4z"/>
	</g>
	<path id="a368706a-11d6-41a2-bd00-6a6054248d43-983" class="s1" d="m196.9 306.3q0.1 3.9-0.5 7.8-0.6 3.9-1.7 7.6-1.1 3.8-2.8 7.4-1.6 3.5-3.8 6.8-0.4 0.7-0.9 1.4-0.5 0.7-1 1.3-0.5 0.7-1 1.3-0.5 0.7-1 1.3-1.3 1.5-2.7 2.9-1.3 1.4-2.8 2.7-1.4 1.3-3 2.5-1.5 1.2-3.1 2.2-1.8 1.2-3.7 2.2-2.4 1.4-5 2.5-2.5 1.1-5.2 1.9-2.6 0.8-5.4 1.3-2.7 0.6-5.5 0.8-2.5 0.3-5.1 0.3-1.7 0-3.5-0.1-1.8-0.2-3.5-0.4-1.8-0.2-3.5-0.6-1.7-0.3-3.4-0.8-1-0.2-2-0.5-0.9-0.3-1.9-0.6-0.9-0.4-1.9-0.7-0.9-0.4-1.8-0.8-1.9-0.8-3.7-1.8-1.1-0.5-2.1-1.1-1.1-0.6-2.1-1.3-1-0.7-2-1.4-1-0.7-2-1.4-1.7-1.4-3.4-3c-13.4-12.4-19.6-30.7-16.6-48.8 3.1-18 15-33.3 31.8-40.6 16.7-7.3 36-5.7 51.3 4.3 15.3 10 24.5 27.1 24.5 45.4z"/>
	<g id="bd7f0843-9709-4a5c-8b0e-26656563f0b3">
		<path id="e4567469-258f-4b3a-88b2-7a234fbc5498" class="s2" d="m213.2 263.8h324.3v14.5h-324.3z"/>
		<path id="b26a9710-740f-4201-9a9a-df254658921a" class="s2" d="m213.2 299.9h115.6v14.5h-115.6z"/>
		<path id="a1758efc-04f7-4da1-846b-fd169401f4c2" class="s2" d="m213.2 336.1h230.4v14.4h-230.4z"/>
	</g>
	<path id="f2fdcd7e-077f-47c5-987d-3f56ec08fcb2" class="s0" d="m42 17.9c-2.4 0-4.4-2-4.4-4.5 0-2.4 2-4.4 4.4-4.4 2.5 0 4.5 2 4.5 4.4 0 2.5-2 4.5-4.5 4.5z"/>
	<path id="bb8af87f-8865-4134-a554-08faac1a89d0" class="s0" d="m59 17.9c-2.5 0-4.5-2-4.5-4.5 0-2.4 2-4.4 4.5-4.4 2.5 0 4.5 2 4.5 4.4 0 2.5-2 4.5-4.5 4.5z"/>
	<path id="bd4c0ca0-b96c-4f92-a965-84f83cdee98a" class="s0" d="m25 17.9c-2.4 0-4.4-2-4.4-4.5 0-2.4 2-4.4 4.4-4.4 2.5 0 4.5 2 4.5 4.4 0 2.5-2 4.5-4.5 4.5z"/>
	<path id="Layer" class="s2" d="m175.2 170q-1.7-1-3.6-1.8-1.8-0.9-3.6-1.7-1.9-0.7-3.7-1.4-1.9-0.7-3.8-1.3l-0.7-7.2-26.4-2.9-3.3 9.2-9.5 3.6q-0.1 0-0.2 0.1-0.1 0-0.3 0.1-0.1 0-0.2 0.1-0.1 0.1-0.2 0.2-0.4 0.2-0.8 0.6-0.3 0.3-0.6 0.7-0.2 0.4-0.4 0.9-0.2 0.4-0.2 0.9-0.1 0.2-0.1 0.5 0 0.2 0 0.4 0 0.3 0.1 0.5 0 0.2 0 0.5l0.5 2q1.1 0.7 2.2 1.2l0.5 0.3q1.6 0.8 3.3 1.6 0.4 0.1 0.7 0.3 0.1 0 0.1 0 0.8 0.3 1.6 0.6 0.6 0.3 1.3 0.5 0.7 0.2 1.4 0.5 0.6 0.2 1.3 0.4 0.7 0.2 1.4 0.4 1.8 0.4 3.5 0.8 1.8 0.3 3.6 0.6 1.8 0.2 3.6 0.3 1.9 0.1 3.7 0.1 2.6 0 5.2-0.2 1.5-0.2 3-0.4 1.4-0.2 2.9-0.5 1.5-0.3 2.9-0.6 1.4-0.4 2.9-0.9 0 0 0 0 0.9-0.3 1.8-0.6 0.9-0.3 1.7-0.6 0.9-0.4 1.8-0.8 0.8-0.3 1.7-0.7 0-0.1 0-0.1 0.8-0.3 1.5-0.7l0.3-0.1q0.6-0.4 1.2-0.7 1.5-0.8 2.9-1.7 0.4-0.3 0.8-0.5 0.6-0.4 1.1-0.8-1.4-0.9-2.9-1.7z"/>
	<path id="Layer" class="s2" d="m132.8 120.9c2 2.4 5.3 3 8.4 3.3q2.7 0.1 5.4 0.1 2.7 0 5.4-0.2 2.6-0.3 5.3-0.7 2.7-0.4 5.3-1c0.4 4.3-0.8 8.8 1.7 12.3q0.5-1.6 0.8-3.2 0.3-1.6 0.6-3.2 0.2-1.6 0.4-3.2 0.2-1.7 0.2-3.3 0.1-0.7 0.1-1.4 0-0.7-0.1-1.4-0.1-0.7-0.3-1.4-0.1-0.6-0.4-1.3-0.2-0.7-0.7-1.2-0.4-0.6-1-1-0.6-0.4-1.2-0.7-0.7-0.2-1.4-0.3 0.5-0.4 1.1-0.7 0.6-0.3 1.2-0.6 0.6-0.3 1.2-0.5 0.7-0.1 1.3-0.2l-6-3.1 1.5-1.6-10.9-0.6 3.2-2q-1.8-0.3-3.6-0.4-1.8-0.2-3.6-0.2-1.8-0.1-3.6-0.1-1.8 0.1-3.6 0.2c-2.2 0.2-4.5 0.5-6.3 1.8-1.8 1.3-2.9 3.8-1.7 5.7q-1.1 0.2-2.1 0.6-0.9 0.5-1.8 1.1-0.8 0.7-1.4 1.5-0.7 0.9-1.1 1.9-0.2 0.7-0.4 1.5-0.2 0.8-0.2 1.7-0.1 0.8-0.1 1.6 0.1 0.8 0.2 1.6 0.2 1.3 0.4 2.6 0.2 1.3 0.5 2.6 0.3 1.3 0.7 2.5 0.4 1.3 0.8 2.5z"/>
	<path id="Layer" fill-rule="evenodd" class="s2" d="m202.1 126.8c0.1 5.8-0.7 11.6-2.4 17.2-1.7 5.6-4.2 10.9-7.6 15.7-3.3 4.8-7.4 9.1-12 12.6q-0.3 0.2-0.5 0.3-0.7 0.6-1.5 1.1-0.5 0.4-1.1 0.8-0.4 0.2-0.8 0.5-1.4 0.9-2.9 1.7-0.6 0.3-1.2 0.7l-0.3 0.1q-0.7 0.4-1.5 0.7 0 0 0 0.1-0.9 0.4-1.7 0.7-0.9 0.4-1.8 0.8-0.8 0.3-1.7 0.6-0.9 0.3-1.8 0.6 0 0 0 0-1.5 0.5-2.9 0.9-1.4 0.3-2.9 0.6-1.5 0.3-2.9 0.5-1.5 0.2-3 0.4-2.6 0.2-5.2 0.2-1.8 0-3.7-0.1-1.8-0.1-3.6-0.3-1.8-0.3-3.6-0.6-1.7-0.4-3.5-0.8-0.7-0.2-1.4-0.4-0.7-0.2-1.3-0.4-0.7-0.3-1.4-0.5-0.7-0.2-1.3-0.5-0.8-0.3-1.6-0.6 0 0-0.1 0-0.3-0.2-0.7-0.3-1.7-0.8-3.3-1.6l-0.5-0.3q-1.1-0.5-2.2-1.2-0.6-0.3-1.2-0.7-2.1-1.3-4-2.8-0.5-0.3-1-0.7-1.2-0.9-2.3-1.9-0.6-0.6-1.2-1.1-0.5-0.5-1.1-1-0.5-0.5-1-1.1-0.5-0.5-1-1.1-0.5-0.5-1-1.1-0.1 0-0.1-0.1-0.8-0.9-1.6-1.9c-10.2-12.8-14.2-29.5-10.9-45.6 3.2-16.1 13.4-29.9 27.7-37.8 14.4-7.9 31.5-9.1 46.8-3.2 15.3 5.9 27.3 18.2 32.7 33.7 1.9 5.5 2.9 11.3 3.1 17.2zm-4.9-12.5c-5.5-20.7-23-35.9-44.2-38.6-21.3-2.7-42 7.7-52.5 26.4-10.5 18.6-8.7 41.8 4.6 58.5q0 0.1 0.1 0.1 0 0.1 0 0.1 0.1 0 0.1 0.1 0 0 0 0 0.6 0.8 1.3 1.5 0.4 0.5 0.9 1.1 0.5 0.5 1 1 0.5 0.6 1 1.1 0.6 0.5 1.1 1 0.5 0.5 1.1 1 1.1 0.9 2.2 1.8 0.7 0.5 1.4 1.1 1.1 0.7 2.1 1.4 0.2 0.1 0.3 0.2 0.4 0.3 0.9 0.6 1.6 1 3.3 1.8l0.4 0.3q1.4 0.7 2.8 1.3 0.2 0.1 0.3 0.2 0.2 0 0.4 0.1 0.1 0.1 0.3 0.1 0.8 0.4 1.6 0.7 0.9 0.3 1.7 0.6 0.8 0.3 1.7 0.5 0.8 0.3 1.7 0.5 1.6 0.4 3.3 0.8 1.7 0.3 3.4 0.5 1.7 0.3 3.4 0.4 1.7 0.1 3.5 0.1 2.5 0 4.9-0.2 1.4-0.2 2.8-0.4 1.4-0.2 2.8-0.5 1.4-0.3 2.8-0.6 1.3-0.4 2.7-0.8 0.3-0.1 0.7-0.2 0.8-0.3 1.5-0.6 0.8-0.2 1.5-0.5 0.7-0.3 1.4-0.6 0.8-0.4 1.5-0.7 0.7-0.4 1.4-0.7l0.1-0.1q0.1 0 0.1 0 0.6-0.3 1.2-0.6 0.1-0.1 0.3-0.2 1.2-0.7 2.5-1.5 0.3-0.2 0.6-0.4l0.1-0.1q0.5-0.3 0.9-0.6 0.5-0.3 1-0.7 0.5-0.3 1-0.7c17.1-13 24.6-34.9 19-55.6z"/>
	<path id="Layer" class="s0" d="m673.1 377c-5.4-15.5-17.4-27.8-32.7-33.7-15.3-5.9-32.4-4.7-46.8 3.2-14.4 7.9-24.5 21.7-27.8 37.8-3.2 16.1 0.8 32.7 11 45.6q0.8 0.9 1.5 1.9 0.1 0 0.2 0.1 0.4 0.5 1 1.1 0.5 0.5 1 1.1 0.5 0.5 1 1 0.6 0.6 1.1 1.1 0.6 0.5 1.2 1 1.1 1 2.3 2 0.6 0.4 1.2 0.9 0.6 0.4 1.3 0.9 0.6 0.4 1.2 0.8 0.6 0.4 1.3 0.8v0.1q1.7 1 3.4 1.9l0.5 0.2q1.6 0.9 3.3 1.6 0.4 0.2 0.7 0.3 0 0 0.1 0 0.8 0.4 1.7 0.7 0.9 0.3 1.7 0.6 0.9 0.3 1.8 0.6 0.9 0.3 1.8 0.5 1.7 0.5 3.5 0.8 1.8 0.4 3.6 0.6 1.8 0.3 3.6 0.4 1.8 0.1 3.7 0.1 2.6 0 5.2-0.3 1.5-0.1 3-0.3 1.4-0.2 2.9-0.5 1.4-0.3 2.9-0.7 1.4-0.4 2.8-0.8 0.1 0 0.1 0 0.9-0.3 1.8-0.6 0.8-0.3 1.7-0.7 0.9-0.3 1.8-0.7 0.8-0.4 1.7-0.8 0 0 0 0 0.8-0.4 1.5-0.8l0.2-0.1q0.6-0.3 1.2-0.6 1.5-0.8 3-1.8 0.4-0.2 0.8-0.5 1.3-0.9 2.6-1.8 0.2-0.2 0.4-0.3c4.7-3.6 8.8-7.8 12.1-12.6 3.3-4.8 5.9-10.1 7.6-15.7 1.7-5.6 2.5-11.4 2.4-17.3-0.2-5.8-1.2-11.6-3.1-17.1z"/>
	<path id="e473f415-6540-4896-b89f-76a5ac7ad60a-984" class="s2" d="m641.2 401.8c1.4 0 2.8 0.4 4.1 1.1 1.2 0.7 2.3 1.7 3 2.9 0.8 1.3 1.2 2.7 1.2 4.1 0 1.5-0.3 2.9-1 4.2 1.5-1.8 2.1-4.2 1.7-6.5-0.3-2.3-1.6-4.4-3.6-5.7-2-1.3-4.4-1.7-6.6-1.1-2.3 0.6-4.2 2.1-5.4 4.1q0.6-0.7 1.4-1.3 0.7-0.6 1.6-1 0.8-0.4 1.7-0.6 0.9-0.2 1.9-0.2z"/>
	<path id="f79ae9d5-f4b5-4dd5-badc-cc4d2f5593dd" class="s2" d="m623.2 409.9c-13.5 0-24.5-11-24.5-24.5 0-13.6 11-24.6 24.5-24.6 13.6 0 24.6 11 24.6 24.6 0 13.5-11 24.5-24.6 24.5z"/>
	<path id="f9880a76-ad0b-4c2a-99b0-b23c20a810bd-985" class="s2" d="m604 370.1c2.1-2.3 4.6-4.2 7.4-5.6 2.9-1.4 5.9-2.3 9.1-2.5 3.1-0.3 6.3 0.1 9.3 1.1 3 0.9 5.8 2.5 8.2 4.5q-0.3-0.3-0.6-0.6c-4.9-4.3-11.2-6.6-17.7-6.2-6.5 0.3-12.6 3.3-17 8.1-4.3 4.8-6.5 11.2-6.2 17.7 0.4 6.5 3.3 12.6 8.1 16.9q0.1 0.1 0.2 0.2 0.3 0.2 0.6 0.5c-2.3-2.2-4.1-4.8-5.4-7.6-1.3-2.9-2-6-2.2-9.1-0.1-3.2 0.4-6.3 1.4-9.3 1.1-3 2.7-5.7 4.8-8.1z"/>
	<path id="b01904a1-9532-4133-8cbd-470829617487" class="s0" d="m623 409.7c-8.7 0-15.8-7.1-15.8-15.8 0-8.8 7.1-15.8 15.8-15.8 8.8 0 15.8 7 15.8 15.8 0 8.7-7 15.8-15.8 15.8z"/>
	<path id="Layer" class="s2" d="m600.2 441.5q0 1.1-0.1 2.1 0 0.6 0 1.1-0.1 0-0.1 0-0.3-0.1-0.7-0.3-1.7-0.7-3.3-1.6l-0.5-0.2q-1.7-0.9-3.4-1.9 0.1-0.6 0.2-1.1 0.1-1.1 0.2-2.3 0.2-2 0.1-4.1-0.1-2-0.5-4-0.4-2-1-3.9-0.6-1.9-1.4-3.8-0.3-0.6-0.3-0.6c0 0 2.9-2.5 7 0q0.1 0.1 0.2 0.1 0.1 0.1 0.2 0.2 0.1 0 0.2 0.1 0 0.1 0.1 0.2c2.5 3 3.2 12.9 3.1 20z"/>
	<path id="Layer" class="s2" d="m645.6 440.1q-0.1 1.7-0.2 3.5 0 0 0 0-0.9 0.4-1.7 0.8-0.9 0.4-1.8 0.7-0.9 0.4-1.7 0.7-0.9 0.3-1.8 0.6 0 0-0.1 0l-0.1-2.8v-0.4l-0.5-13.7q0-0.4 0.1-0.9 0.2-0.4 0.5-0.8 0.4-0.3 0.8-0.5 0.4-0.2 0.9-0.2h5.1c0.2 0 0.4 0.5 0.5 1.5q0.1 1.4 0.1 2.9 0.1 1.4 0.1 2.8 0 1.5-0.1 2.9 0 1.5-0.1 2.9z"/>
	<path id="a05c59bd-0311-408b-a800-ed606f18fbbf-986" class="s2" d="m609.5 374.1v15.8h3.7l4.6-5-0.6 5h16.2l-1-5 2 5h2.6v-15.8z"/>
	<path id="af122121-1c1b-4817-a566-2298b147ce18" class="s3" d="m607 392.8c-0.7 0-1.2-1-1.2-2.3 0-1.2 0.5-2.2 1.2-2.2 0.7 0 1.3 1 1.3 2.2 0 1.3-0.6 2.3-1.3 2.3z"/>
	<path id="bec83a12-853e-4dd5-94d0-e2c2a5b21156" class="s3" d="m639 392.8c-0.7 0-1.2-1-1.2-2.3 0-1.2 0.5-2.2 1.2-2.2 0.7 0 1.3 1 1.3 2.2 0 1.3-0.6 2.3-1.3 2.3z"/>
	<path id="Layer" class="s1" d="m654.7 438q-1.3 0.9-2.6 1.8-0.4 0.3-0.8 0.5-1.5 1-3 1.8-0.6 0.3-1.2 0.6v-11c0 0 1.6 1.3 4.2 3.4q0.5 0.4 1 0.9 1.1 0.9 2.4 2z"/>
	<path id="Layer" fill-rule="evenodd" class="s2" d="m676.2 394.1c0.1 5.9-0.7 11.7-2.4 17.3-1.7 5.6-4.3 10.9-7.6 15.7-3.3 4.8-7.4 9-12.1 12.6q-0.2 0.1-0.4 0.3-1.3 0.9-2.6 1.8-0.4 0.3-0.8 0.5-1.5 1-3 1.8-0.6 0.3-1.2 0.6l-0.2 0.1q-0.7 0.4-1.5 0.8 0 0 0 0-0.9 0.4-1.7 0.8-0.9 0.4-1.8 0.7-0.9 0.4-1.7 0.7-0.9 0.3-1.8 0.6 0 0-0.1 0-1.4 0.4-2.8 0.8-1.5 0.4-2.9 0.7-1.5 0.3-2.9 0.5-1.5 0.2-3 0.3-2.6 0.3-5.2 0.3-1.9 0-3.7-0.1-1.8-0.1-3.6-0.4-1.8-0.2-3.6-0.6-1.8-0.3-3.5-0.8-0.9-0.2-1.8-0.5-0.9-0.3-1.8-0.6-0.8-0.3-1.7-0.6-0.9-0.3-1.7-0.7-0.1 0-0.1 0-0.3-0.1-0.7-0.3-1.7-0.7-3.3-1.6l-0.5-0.2q-1.7-0.9-3.4-1.9v-0.1q-0.7-0.4-1.3-0.8-0.6-0.4-1.2-0.8-0.7-0.5-1.3-0.9-0.6-0.5-1.2-0.9-1.2-1-2.3-2-0.6-0.5-1.2-1-0.5-0.5-1.1-1.1-0.5-0.5-1-1-0.5-0.6-1-1.1-0.6-0.6-1-1.1-0.1-0.1-0.2-0.1-0.7-1-1.5-1.9c-10.2-12.9-14.2-29.5-11-45.6 3.3-16.1 13.4-29.9 27.8-37.8 14.4-7.9 31.5-9.1 46.8-3.2 15.3 5.9 27.3 18.2 32.7 33.7 1.9 5.5 2.9 11.3 3.1 17.1zm-4.9-12.5c-5.5-20.6-23-35.9-44.2-38.6-21.3-2.6-42 7.8-52.5 26.4-10.5 18.7-8.7 41.8 4.6 58.6q0 0 0 0.1 0.1 0 0.1 0 0 0.1 0.1 0.1 0 0.1 0 0.1 0.6 0.7 1.3 1.5 0.4 0.5 0.9 1 0.5 0.6 1 1.1 0.5 0.5 1 1 0.5 0.5 1.1 1 0.5 0.5 1.1 1 1.1 1 2.2 1.9 1.7 1.3 3.5 2.5 0.6 0.4 1.2 0.7 1.6 1 3.2 1.9l0.5 0.2q1.4 0.7 2.8 1.4 0.1 0 0.3 0.1 0.4 0.2 0.7 0.3 0.8 0.3 1.6 0.7 0.9 0.3 1.7 0.6 0.8 0.2 1.7 0.5 0.8 0.2 1.7 0.5 1.6 0.4 3.3 0.7 1.7 0.4 3.4 0.6 1.7 0.2 3.4 0.3 1.7 0.1 3.5 0.1 2.5 0 4.9-0.2 1.4-0.1 2.8-0.3 1.4-0.2 2.8-0.5 1.4-0.3 2.7-0.6 1.4-0.4 2.7-0.8 0.4-0.2 0.8-0.3 0.8-0.2 1.5-0.5 0.8-0.3 1.5-0.6 0.7-0.3 1.4-0.6 0.7-0.3 1.5-0.6 0.7-0.4 1.4-0.8h0.1q0.1 0 0.1-0.1 0.6-0.3 1.2-0.6 0.1-0.1 0.2-0.1 1.3-0.8 2.6-1.5 0.3-0.3 0.7-0.5 0.5-0.3 0.9-0.6 0.5-0.4 1-0.7 0.5-0.4 1-0.8c17-12.9 24.6-34.9 19-55.6z"/>
	<path id="Layer" class="s4" d="m825.7 574h-213q-0.4-0.1-0.7-0.3-0.3-0.3-0.3-0.7 0-0.5 0.3-0.8 0.3-0.2 0.7-0.2h213q0.4 0 0.7 0.2 0.3 0.3 0.3 0.8 0 0.4-0.3 0.7-0.3 0.2-0.7 0.3z"/>
</svg>