<?xml version="1.0" encoding="UTF-8"?>
<svg width="146px" height="146px" viewBox="0 0 146 146" version="1.1" xmlns="http://www.w3.org/2000/svg" xmlns:xlink="http://www.w3.org/1999/xlink">
    <!-- Generator: Sketch 49 (51002) - http://www.bohemiancoding.com/sketch -->
    <title>Group</title>
    <desc>Created with Sketch.</desc>
    <defs></defs>
    <g id="Page-1" stroke="none" stroke-width="1" fill="none" fill-rule="evenodd">
        <g id="Desktop-HD" transform="translate(-601.000000, -196.000000)">
            <g id="Group" transform="translate(601.000000, 196.000000)">
                <circle id="Oval-2" fill-opacity="0.135105299" fill="#0095F7" cx="73" cy="73" r="73"></circle>
                <circle id="Oval-2" fill="#0095F7" cx="74" cy="73" r="51"></circle>
                <path d="M55.565,82.15 L65.12,72.77 C65.8900038,72.0233296 66.5024977,71.2708371 66.9575,70.5125 C67.4125023,69.7541629 67.64,68.8850049 67.64,67.905 C67.64,66.7383275 67.2608371,65.8108368 66.5025,65.1225 C65.7441629,64.4341632 64.8050056,64.09 63.685,64.09 C62.4949941,64.09 61.538337,64.492496 60.815,65.2975 C60.0916631,66.102504 59.6483341,67.1116606 59.485,68.325 L55.39,67.695 C55.5066672,66.6683282 55.798331,65.7233377 56.265,64.86 C56.731669,63.9966623 57.3266631,63.2500031 58.05,62.62 C58.773337,61.9899968 59.6191618,61.4941685 60.5875,61.1325 C61.5558382,60.7708315 62.611661,60.59 63.755,60.59 C64.8283387,60.59 65.8608284,60.7416651 66.8525,61.045 C67.8441716,61.3483349 68.7249961,61.8091636 69.495,62.4275 C70.2650038,63.0458364 70.8774977,63.8041622 71.3325,64.7025 C71.7875023,65.6008378 72.015,66.644994 72.015,67.835 C72.015,68.6283373 71.9100011,69.3691632 71.7,70.0575 C71.489999,70.7458368 71.2041685,71.3933303 70.8425,72 C70.4808315,72.6066697 70.0608357,73.1841639 69.5825,73.7325 C69.1041643,74.2808361 68.5850028,74.8116641 68.025,75.325 L60.885,82.15 L72.05,82.15 L72.05,86 L55.565,86 L55.565,82.15 Z M86.68,80.855 L75.235,80.855 L75.235,77.145 L85.77,61.22 L90.81,61.22 L90.81,77.25 L94.275,77.25 L94.275,80.855 L90.81,80.855 L90.81,86 L86.68,86 L86.68,80.855 Z M86.68,66.155 L86.61,66.155 L79.575,77.25 L86.68,77.25 L86.68,66.155 Z" id="24" fill="#FFFFFF"></path>
            </g>
        </g>
    </g>
</svg>